<mxfile host="Electron" modified="2025-03-01T14:23:58.727Z" agent="Mozilla/5.0 (Windows NT 10.0; Win64; x64) AppleWebKit/537.36 (KHTML, like Gecko) draw.io/22.1.16 Chrome/120.0.6099.109 Electron/28.1.0 Safari/537.36" etag="dqBna2iSwfh3CDJW_wQG" version="22.1.16" type="device">
  <diagram name="Page-1" id="UfbIIpyl3Q778owOVv6B">
    <mxGraphModel dx="1050" dy="621" grid="1" gridSize="10" guides="1" tooltips="1" connect="1" arrows="1" fold="1" page="1" pageScale="1" pageWidth="850" pageHeight="1100" math="0" shadow="0">
      <root>
        <mxCell id="0" />
        <mxCell id="1" parent="0" />
        <mxCell id="G3gUMoK3ScSQN5SUsm8a-3" style="rounded=0;orthogonalLoop=1;jettySize=auto;html=1;entryX=0;entryY=0.5;entryDx=0;entryDy=0;fillColor=#d5e8d4;strokeColor=#82b366;" parent="1" source="G3gUMoK3ScSQN5SUsm8a-4" target="G3gUMoK3ScSQN5SUsm8a-12" edge="1">
          <mxGeometry relative="1" as="geometry" />
        </mxCell>
        <mxCell id="G3gUMoK3ScSQN5SUsm8a-4" value="Khách hàng" style="shape=umlActor;verticalLabelPosition=bottom;verticalAlign=top;html=1;outlineConnect=0;fillColor=#d5e8d4;strokeColor=#82b366;fontSize=14;" parent="1" vertex="1">
          <mxGeometry x="220" y="305" width="30" height="60" as="geometry" />
        </mxCell>
        <mxCell id="G3gUMoK3ScSQN5SUsm8a-9" style="rounded=0;orthogonalLoop=1;jettySize=auto;html=1;entryX=0;entryY=0.5;entryDx=0;entryDy=0;dashed=1;endArrow=open;endFill=0;" parent="1" source="G3gUMoK3ScSQN5SUsm8a-12" target="G3gUMoK3ScSQN5SUsm8a-15" edge="1">
          <mxGeometry relative="1" as="geometry" />
        </mxCell>
        <mxCell id="G3gUMoK3ScSQN5SUsm8a-11" style="rounded=0;orthogonalLoop=1;jettySize=auto;html=1;dashed=1;endArrow=open;endFill=0;entryX=0;entryY=0.5;entryDx=0;entryDy=0;" parent="1" source="G3gUMoK3ScSQN5SUsm8a-12" target="G3gUMoK3ScSQN5SUsm8a-14" edge="1">
          <mxGeometry relative="1" as="geometry" />
        </mxCell>
        <mxCell id="G3gUMoK3ScSQN5SUsm8a-12" value="Yêu cầu&lt;br&gt;sửa chữa" style="ellipse;whiteSpace=wrap;html=1;fontSize=14;" parent="1" vertex="1">
          <mxGeometry x="360" y="310" width="100" height="50" as="geometry" />
        </mxCell>
        <mxCell id="G3gUMoK3ScSQN5SUsm8a-14" value="Tra cứu&lt;br&gt;yêu cầu" style="ellipse;whiteSpace=wrap;html=1;fontSize=14;" parent="1" vertex="1">
          <mxGeometry x="580" y="360" width="100" height="50" as="geometry" />
        </mxCell>
        <mxCell id="G3gUMoK3ScSQN5SUsm8a-15" value="Tạo yêu cầu" style="ellipse;whiteSpace=wrap;html=1;fontSize=14;" parent="1" vertex="1">
          <mxGeometry x="580" y="270" width="100" height="50" as="geometry" />
        </mxCell>
        <mxCell id="Sy7agHyt3ejb4uEKfC_7-1" value="&amp;lt;&amp;lt;extend&amp;gt;&amp;gt;" style="text;html=1;strokeColor=none;fillColor=none;align=center;verticalAlign=middle;whiteSpace=wrap;rounded=0;fontSize=14;rotation=15;" vertex="1" parent="1">
          <mxGeometry x="505" y="340" width="60" height="30" as="geometry" />
        </mxCell>
        <mxCell id="Sy7agHyt3ejb4uEKfC_7-2" value="&amp;lt;&amp;lt;extend&amp;gt;&amp;gt;" style="text;html=1;strokeColor=none;fillColor=none;align=center;verticalAlign=middle;whiteSpace=wrap;rounded=0;fontSize=14;rotation=-10;" vertex="1" parent="1">
          <mxGeometry x="490" y="280" width="60" height="30" as="geometry" />
        </mxCell>
      </root>
    </mxGraphModel>
  </diagram>
</mxfile>
